<svg data-v-0dd9719b="" version="1.0" xmlns="http://www.w3.org/2000/svg" xmlns:xlink="http://www.w3.org/1999/xlink" width="100%" height="100%" viewBox="0 0 340.000000 250.000000" preserveAspectRatio="xMidYMid meet" color-interpolation-filters="sRGB" style="margin: auto;"> <rect data-v-0dd9719b="" x="0" y="0" width="100%" height="100%" fill="#FFFFFF" fill-opacity="1" class="background"></rect> <rect data-v-0dd9719b="" x="0" y="0" width="100%" height="100%" fill="url(#watermark)" fill-opacity="1" class="watermarklayer"></rect> <g data-v-0dd9719b="" fill="#300000" class="icon-text-wrapper icon-svg-group iconsvg" transform="translate(70.77439880371094,94.98348999023438)"><g class="iconsvg-imagesvg" transform="translate(0,0)"><g><rect fill="#300000" fill-opacity="0" stroke-width="2" x="0" y="0" width="60" height="60.033018159987996" class="image-rect"></rect> <svg x="0" y="0" width="60" height="60.033018159987996" filtersec="colorsb404353265" class="image-svg-svg primary" style="overflow: visible;"><svg xmlns="http://www.w3.org/2000/svg" viewBox="0 -0.000057221815950470045 119.93415069580078 120.00004577636719"><defs><clipPath id="abc6873ee-894b-4989-8f83-475b2925b8c1" transform="translate(-.33 -.33)"><path fill="none" d="M0 0h120.59v120.59H0z"></path></clipPath></defs><g><g clip-path="url(#abc6873ee-894b-4989-8f83-475b2925b8c1)"><path d="M100.47 49.6c-14.41 7.97-21.46 38.95-46.8 46.37 0 0 16.09-10.87 15.86-17 0 0-35.23 30.68-67.37-9 0 0 48.26 36.16 84-22.32 2.28-3.73 7-9 16.6-5.58a11.89 11.89 0 0 0 8.08-.52c3.47-1.37 1.54 1.47-10.37 8.05zM59.89 0a59.82 59.82 0 0 0-39 14.39c5.93 13.41 18.9 33.38 44.07 33.28 0 0-34 2.92-49.9-27.49a61.85 61.85 0 0 0-4.52 5.68C17.8 38.54 34.44 57.29 68.37 53c0 0-31.36 17.26-64.15-15.4a57.32 57.32 0 0 0-2.44 7.55c10.25 9.26 36.82 27.91 72.64 13.26 0 0-32 33.93-74.42 4.4A60 60 0 1 0 59.89 0z" fill="#ea3637"></path></g></g></svg></svg> <!----></g></g> <g transform="translate(66,7.06260871887207)"><g data-gra="path-name" fill-rule="" class="tp-name iconsvg-namesvg" transform="translate(0,0)"><g transform="scale(0.96)"><g><path d="M9.72 0L9.72-24.66 0.18-24.66 0.18-30.02 26.05-30.02 26.05-24.66 16.11-24.66 16.11 0 9.72 0ZM42.52-30.2L42.52-30.2Q47.02-30.2 50.44-28.66L50.44-28.66Q54.45-26.82 56.07-22.5L56.07-22.5Q57.33-19.13 57.33-14.58L57.33-14.58Q57.33-9.99 55.8-6.61L55.8-6.61Q53.86-2.61 49.86-0.99L49.86-0.99Q46.89 0.18 43.02 0.18L43.02 0.18Q37.93 0.18 34.2-1.71L34.2-1.71Q31.05-3.28 29.38-6.66 27.72-10.04 27.72-14.85L27.72-14.85Q27.72-23.45 31.99-27.09L31.99-27.09Q35.59-30.15 42.52-30.2ZM42.57-25.15L42.57-25.15Q38.16-25.15 36.27-22.27L36.27-22.27Q34.74-20.02 34.74-15.03L34.74-15.03Q34.74-9.76 36.63-7.29L36.63-7.29Q38.52-4.86 42.61-4.86L42.61-4.86Q46.57-4.86 48.44-7.33 50.31-9.81 50.31-14.98L50.31-14.98Q50.31-19.71 48.78-22.18L48.78-22.18Q47.02-25.11 42.57-25.15ZM78.48-10.48L68.22-10.48 68.22 0 61.83 0 61.83-30.02 76.81-30.02Q80.91-30.02 82.66-29.43L82.66-29.43Q85.63-28.44 87.34-25.33L87.34-25.33Q88.6-22.99 88.6-20.25L88.6-20.25Q88.6-17.95 87.77-15.91 86.94-13.86 85.45-12.55L85.45-12.55Q84.1-11.38 82.6-10.93 81.09-10.48 78.48-10.48L78.48-10.48ZM68.22-24.66L68.22-15.84 76.91-15.84Q79.24-15.84 80.19-16.56L80.19-16.56Q81.58-17.68 81.58-20.47L81.58-20.47Q81.58-23.49 79.47-24.34L79.47-24.34Q78.7-24.66 77.04-24.66L77.04-24.66 68.22-24.66ZM121.81 0L121.81-24.66 112.28-24.66 112.28-30.02 138.15-30.02 138.15-24.66 128.2-24.66 128.2 0 121.81 0Z" transform="translate(-0.18000000715255737, 30.200000762939453)"></path></g> <!----> <!----> <!----> <!----> <!----> <!----> <!----></g></g> <g data-gra="path-slogan" fill-rule="" class="tp-slogan iconsvg-slogansvg" fill="#300000" transform="translate(5,34.16480255126953)"><rect x="0" height="1" y="4.870000839233398" width="23.172607421875"></rect> <rect height="1" y="4.870000839233398" width="23.172607421875" x="99.27859497070312"></rect> <g transform="translate(26.172607421875,0)"><g transform="scale(1.2000000000000002)"><path d="M7.17-6.09L7.17-6.09L6.09-6.09Q6-7.73 3.94-7.83L3.94-7.83Q2.02-7.78 2.02-6.33L2.02-6.33Q2.02-5.39 3.05-5.25L3.05-5.25L5.48-4.69Q7.41-4.22 7.41-2.34L7.41-2.34Q7.36 0.05 4.03 0.14L4.03 0.14Q2.20 0.14 1.45-0.61L1.45-0.61Q0.52-1.31 0.56-2.77L0.56-2.77L1.69-2.77Q1.73-0.80 4.03-0.75L4.03-0.75Q6.28-0.80 6.33-2.20L6.33-2.20Q6.52-3.38 4.45-3.75L4.45-3.75L2.67-4.13Q0.84-4.64 0.84-6.19L0.84-6.19Q0.98-8.72 3.84-8.81L3.84-8.81Q7.08-8.81 7.17-6.09ZM10.86-8.58L12.03-8.58L12.03-1.03L16.39-1.03L16.39 0L10.86 0L10.86-8.58ZM26.31-4.27L26.31-4.27Q26.13-7.64 23.31-7.83L23.31-7.83Q20.45-7.69 20.31-4.27L20.31-4.27Q20.45-0.94 23.31-0.80L23.31-0.80Q26.13-0.98 26.31-4.27ZM27.48-4.27L27.48-4.27Q27.20 0 23.31 0.14L23.31 0.14Q19.38 0 19.09-4.27L19.09-4.27Q19.33-8.72 23.31-8.81L23.31-8.81Q27.20-8.67 27.48-4.27ZM37.27-3.61L34.64-3.61L34.64-4.59L38.39-4.59L38.39 0L37.64 0L37.36-1.08Q36.38 0.09 34.55 0.14L34.55 0.14Q32.81 0.14 31.88-0.75L31.88-0.75Q30.47-2.06 30.52-4.36L30.52-4.36Q30.84-8.63 34.59-8.81L34.59-8.81Q37.78-8.63 38.25-6L38.25-6L37.13-6Q36.66-7.78 34.55-7.83L34.55-7.83Q31.88-7.64 31.73-4.31L31.73-4.31Q31.73-0.75 34.59-0.75L34.59-0.75Q35.63-0.75 36.38-1.31L36.38-1.31Q37.31-2.06 37.27-3.61L37.27-3.61ZM47.84 0L47-2.48L43.53-2.48L42.64 0L41.47 0L44.70-8.58L46.02-8.58L49.11 0L47.84 0ZM45.27-7.31L43.91-3.52L46.58-3.52L45.31-7.31L45.27-7.31ZM53.55-8.58L57.86-1.64L57.86-8.58L58.98-8.58L58.98 0L57.67 0L53.31-6.94L53.27-6.94L53.27 0L52.14 0L52.14-8.58L53.55-8.58Z" transform="translate(-0.5602678571428572, 8.8125)"></path></g></g></g></g></g><defs v-gra="od"></defs></svg>